# xmcd
# 
# Track frame offsets:
#     150
#     23584
#     39064
#     53179
#     70669
#     88428
#     103074
#     114939
#     129953
#     144992
#     157612
#     173431
#     188815
#     203815
#     220755
# 
# Disc length: 3260
# 
# Revision: 0
# Processed by: cddbd v1.5.2PL0 Copyright (c) Steve Scherf et al.
# Submitted via: BonkEnc v1.0.5
# 
DISCID=b70cba0f
DTITLE=Bruno and Marrone - Ao Vivo em Goiânia
DYEAR=2006
DGENRE=Sertanejo
TTITLE0=Faixa 1
TTITLE1=Faixa 2
TTITLE2=Faixa 3
TTITLE3=Faixa 4
TTITLE4=Faixa 5
TTITLE5=Faixa 6
TTITLE6=Faixa 7
TTITLE7=Faixa 8
TTITLE8=Faixa 9
TTITLE9=Faixa 10
TTITLE10=Faixa 11
TTITLE11=Faixa 12
TTITLE12=Faixa 13
TTITLE13=Faixa 14
TTITLE14=Faixa 15
EXTD=Letras de Música Fornecida Por: Equipe\n                                                               Ks YEAR: 2006
EXTT0=
EXTT1=
EXTT2=
EXTT3=
EXTT4=
EXTT5=
EXTT6=
EXTT7=
EXTT8=
EXTT9=
EXTT10=
EXTT11=
EXTT12=
EXTT13=
EXTT14=
PLAYORDER=
